HIERARCHY
ROOT Hips
{
	OFFSET	0	0	0
	CHANNELS 6  Xposition Yposition Zposition Xrotation Yrotation Zrotation
	JOINT Spine
	{
		OFFSET	0	6.43035	1.29592
		CHANNELS 3  Xrotation Yrotation Zrotation
		JOINT Spine1
		{
			OFFSET	0	11.0515	-1.97348
			CHANNELS 3  Xrotation Yrotation Zrotation
			JOINT Spine2
			{
				OFFSET	0	8.37743	0.897934
				CHANNELS 3  Xrotation Yrotation Zrotation
				JOINT Spine3
				{
					OFFSET	0	10.0253	2.97996
					CHANNELS 3  Xrotation Yrotation Zrotation
					JOINT Spine4
					{
						OFFSET	0	14.8406	-1.51958
						CHANNELS 3  Xrotation Yrotation Zrotation
						JOINT Neck
						{
							OFFSET	0	7.0848	-4.96331
							CHANNELS 3  Xrotation Yrotation Zrotation
							JOINT Head
							{
								OFFSET	0	8.50571	-2.54579
								CHANNELS 3  Xrotation Yrotation Zrotation
								End Site
								{
									OFFSET	0	17.7416	-0.858465
								}
							}
						}
					}
					JOINT LeftShoulder
					{
						OFFSET	-4.26272	18.0376	-8.50571
						CHANNELS 3  Xrotation Yrotation Zrotation
						JOINT LeftArm
						{
							OFFSET	-9.26857	-2.54579	3.26613
							CHANNELS 3  Xrotation Yrotation Zrotation
							JOINT LeftForeArm
							{
								OFFSET	-28.2392	-1.28889	2.01568
								CHANNELS 3  Xrotation Yrotation Zrotation
								JOINT LeftHand
								{
									OFFSET	-22.9751	-1.58771	1.63994
									CHANNELS 3  Xrotation Yrotation Zrotation
									End Site
									{
										OFFSET	-8.38477	-0.579434	0.598457
									}
								}
							}
						}
					}
					JOINT RightShoulder
					{
						OFFSET	4.26272	18.0376	-8.50571
						CHANNELS 3  Xrotation Yrotation Zrotation
						JOINT RightArm
						{
							OFFSET	9.26857	-2.54579	3.26613
							CHANNELS 3  Xrotation Yrotation Zrotation
							JOINT RightForeArm
							{
								OFFSET	28.2392	-1.28889	2.01568
								CHANNELS 3  Xrotation Yrotation Zrotation
								JOINT RightHand
								{
									OFFSET	22.9751	-1.58771	1.63994
									CHANNELS 3  Xrotation Yrotation Zrotation
									End Site
									{
										OFFSET	8.38477	-0.579434	0.598457
									}
								}
							}
						}
					}
				}
			}
		}
	}
	JOINT LeftUpLeg
	{
		OFFSET	-8.79432	-3.21518	-0.64796
		CHANNELS 3  Xrotation Yrotation Zrotation
		JOINT LeftLeg
		{
			OFFSET	-1.93242	-37.8649	-0.591911
			CHANNELS 3  Xrotation Yrotation Zrotation
			JOINT LeftFoot
			{
				OFFSET	-1.8889	-34.8184	2.99439
				CHANNELS 3  Xrotation Yrotation Zrotation
				JOINT LeftToeBase
				{
					OFFSET	0	-4.3392	-11.5249
					CHANNELS 3  Xrotation Yrotation Zrotation
					End Site
					{
						OFFSET	0	-1.73568	-6.94272
					}
				}
			}
		}
	}
	JOINT RightUpLeg
	{
		OFFSET	8.79432	-3.21518	-0.64796
		CHANNELS 3  Xrotation Yrotation Zrotation
		JOINT RightLeg
		{
			OFFSET	1.93242	-37.8649	-0.591911
			CHANNELS 3  Xrotation Yrotation Zrotation
			JOINT RightFoot
			{
				OFFSET	1.8889	-34.8184	2.99439
				CHANNELS 3  Xrotation Yrotation Zrotation
				JOINT RightToeBase
				{
					OFFSET	0	-4.3392	-11.5249
					CHANNELS 3  Xrotation Yrotation Zrotation
					End Site
					{
						OFFSET	0	-1.73568	-6.94272
					}
				}
			}
		}
	}
}
MOTION
Frames: 12
Frame Time: 0.020408
 0 -5.59411 3.22603 -0 0 -0 -0 0 -0 -0 0 -0 -0 0 -0 -0 0 -0 -0 0 -0 -0 0 -0 -0 0 -0 -0 0 -0 -0 0 -0 -0 0 -0 -0 0 -0 -0 0 -0 -0 0 -0 -0 0 -0 -0 0 -0 -0 0 -0 -0 0 -0 -0 0 -0 -0 0 -0 -0 0 -0 -0 0 -0 -0 0 -0 -0 0 -0
 225.559 75.1354 -272.636 148.234 -116.645 123.969 9.14172e-05 -0.00436463 1.19989 8.19402 -0.00872585 1.99981 8.94257 -0.0261775 1.99981 7.70638 -0.00436463 1.19989 177.496 -179.983 -179.6 165.185 172.538 178.69 175.354 164.996 -178.571 1.5401 -28.5444 3.34593 0.262323 -25.8342 15.4294 167.843 -174.463 176.945 -0 -14.1571 19.0666 172.976 170.432 -165.281 16.8887 -16.5854 -69.4961 0.114186 18.3077 1.66787 -0 9.97835 20.9566 25.8048 39.3064 24.1948 159.025 -177.149 -179.588 27.3166 -0.0453628 -3.08938 0.0285965 0 0 98.1474 -1.16843 55.9648 179.451 168.281 179.855 36.5943 0.0178707 -11.3959 179.713 180 -180
 225.282 75.1228 -273.421 146.13 -117.579 121.445 180 180 -178.597 8.52828 0.000753123 2.33889 9.10775 0.00225937 2.33889 7.42415 0.000376762 1.40334 178.786 -179.99 -179.532 168.562 173.079 176.971 176.399 164.924 -179.179 1.25717 -28.61 2.73079 2.43229 -24.8796 14.306 167.114 -174.271 176.809 -0 -14.3884 19.101 172.724 172.139 -164.886 17.0909 -16.5846 -69.3499 0.106834 20.0345 1.51182 -0 10.3969 20.355 24.4987 41.2056 26.8427 160.295 -178.082 -179.879 28.4635 -0.145332 -2.96566 0.0215385 0 0 99.2547 -0.02694 56.1269 1.82876 11.6795 -0.180377 35.1804 0.0170878 -11.3481 179.707 180 -180
 224.207 75.5396 -274.291 143.91 -118.953 118.726 180 179.995 -178.426 8.91117 0.0106033 2.62302 9.33222 0.0318099 2.62302 7.20702 0.00530521 1.57381 0.0164024 0.000150186 0.524605 171.697 173.686 175.359 177.375 164.717 -179.752 1.53807 -28.6179 3.34143 5.01944 -25.4176 13.3073 166.48 -173.477 176.555 -0 -14.6926 19.0192 172.426 172.33 -164.267 16.8804 -16.2526 -69.3243 0.0259384 22.1769 1.52735 -0 10.9097 19.4973 23.1902 43.2663 29.5368 161.907 -179.457 -179.651 29.4401 -0.0191286 -2.90146 0.0166847 0 0 100.045 0.784897 56.4373 3.54758 11.6779 -0.213175 34.5236 -0.0390353 -11.3509 179.704 180 -180
 223.285 75.8352 -274.445 144.141 -121.331 120.361 0.000307868 -0.0109734 1.60706 9.23301 -0.0219314 2.67844 9.46291 -0.0657942 2.67844 6.83848 -0.0109734 1.60706 1.48239 0.0138585 0.535509 175.509 174.71 173.221 178.581 164.38 179.473 1.43357 -28.4308 3.11443 7.14721 -25.2984 12.5503 165.932 -172.525 176.125 -0 -14.8659 18.7524 171.994 172.614 -163.367 15.3674 -15.9159 -69.9284 179.843 156.01 -178.362 -0 11.3629 18.3286 22.3445 45.329 31.3115 163.752 179.392 -179.773 30.8438 -0.128075 -2.81702 0.0120109 0 0 100.55 1.35005 57.4804 4.87097 11.7138 -0.176589 33.3291 -0.124955 -11.3785 179.699 180 -180
 222.877 75.7982 -274.088 142.214 -121.328 118.454 180 179.989 -178.299 9.45892 0.0219694 2.8343 9.57734 0.0659081 2.8343 6.66814 0.0109933 1.70058 2.30905 0.0228393 0.5664 177.599 175.236 172.176 179.247 164.023 179.078 1.45564 -28.5186 3.16233 9.19453 -26.1001 13.017 165.52 -170.496 175.865 -0 -15.2385 18.5633 171.857 172.305 -163.038 14.2786 -15.2432 -70.6785 179.76 154.269 -178.371 -0 11.8669 17.0966 21.3552 47.4854 32.4539 165.644 178.059 -179.762 31.7471 -0.144643 -2.77811 0.00626274 0 0 100.885 2.35116 56.8053 5.81747 11.8312 -0.120561 35.5024 -0.0324332 -11.4508 179.697 180 -180
 222.486 75.7086 -274.647 141.496 -122.451 119.066 180 179.997 -178.387 9.65544 0.00694549 2.68788 9.66185 0.0208365 2.68788 6.45827 0.00347519 1.61273 3.16899 0.0297187 0.536754 179.762 175.986 170.707 179.956 163.444 178.549 1.50584 -28.5386 3.27145 11.3721 -27.3175 11.5322 164.89 -167.471 174.804 -0 -15.5227 18.2529 171.492 172.8 -162.301 12.6983 -14.7764 -71.1634 179.666 152.737 -178.181 -0 12.4081 15.7432 20.0617 49.358 34.3215 167.545 176.672 -179.739 33.5729 -0.117501 -2.68598 0.00117907 0 0 100.344 1.98527 57.3324 5.71325 11.8681 0.0361065 35.5333 -0.0720524 -11.4448 179.691 180 -180
 222.195 75.877 -275.769 139.153 -122.991 117.87 0.000224127 -0.00834485 1.53849 9.97097 -0.016679 2.56415 9.77099 -0.050037 2.56415 6.04262 -0.00834485 1.53849 4.73354 0.0423208 0.51108 3.7552 2.85367 -10.8779 1.26527 17.2654 -2.18061 1.54959 -28.633 3.36644 13.7808 -29.6418 11.2141 164.294 -165.547 174.136 -0 -15.5951 17.9174 171.326 172.659 -161.924 11.8524 -14.1965 -71.7757 179.672 150.805 -178.148 -0 13.1396 14.6623 18.313 50.8589 36.4408 169.562 175.338 -179.777 35.7358 -0.0940406 -2.55396 179.997 180 -180 99.8636 1.81607 57.8153 5.81624 11.888 -0.110312 36.4985 -0.0729456 -11.436 179.684 180 -180
 222.434 76.3093 -276.747 138.253 -123.745 118.153 0.000188345 -0.00758555 1.42233 10.3304 -0.0151628 2.37055 9.78601 -0.0454883 2.37055 5.24986 -0.00758555 1.42233 7.26224 0.0599341 0.470307 10.1468 0.133589 -13.3391 3.43894 17.9901 -3.52378 1.56806 -28.6234 3.40662 16.1116 -30.8533 11.5239 163.619 -164.281 173.595 -0 -15.7515 17.5669 170.807 173.646 -160.91 10.1218 -14.0715 -72.066 179.745 149.884 -178.318 -0 14.3328 14.0858 15.5507 51.9181 38.4394 171.428 174.062 -179.81 38.3085 -0.0743164 -2.44292 179.993 180 -180 99.2753 1.32002 58.1973 5.45264 11.8988 0.0156266 35.5909 0.00460691 -11.4309 179.676 180 -180
 222.259 76.5494 -278.462 135.317 -125.698 117.693 0.000439883 -0.0212986 1.18317 10.6315 -0.0425811 1.97195 9.76327 -0.127743 1.97195 4.47352 -0.0212986 1.18317 9.64163 0.0660554 0.388818 15.9859 -3.05028 -15.2701 5.50477 18.4981 -4.87659 1.5004 -28.9643 3.25904 18.4512 -32.1021 13.8925 163.01 -163.762 173.332 -0 -15.8159 17.3447 170.315 174.471 -159.942 9.29323 -13.7808 -72.0517 179.761 147.81 -178.202 -0 15.8165 13.4541 13.8752 53.4642 40.2659 173.734 172.895 -179.448 40.6794 0.0601379 -2.24602 179.991 180 -180 99.615 2.16861 59.2663 4.83926 11.7646 0.201153 34.1249 -0.0660828 -11.3672 179.668 180 -180
 222.046 76.3757 -280.081 132.464 -126.305 117.247 0.000385651 -0.032055 0.689288 10.9994 -0.0641017 1.14881 9.95446 -0.192305 1.14882 4.18995 -0.032055 0.689288 10.9984 0.0438349 0.225542 18.933 -5.44588 -16.5052 6.62388 18.7117 -5.7876 0.748951 -28.8347 1.6264 21.4596 -35.2437 14.9666 162.422 -164.124 173.291 -0 -15.6786 17.2362 169.76 175.017 -158.8 9.28971 -13.1424 -71.4826 179.786 145.639 -178.309 -0 17.4751 12.9362 11.8405 54.3437 42.938 176.583 172.22 -179.532 40.2855 -0.120268 -1.77672 179.987 180 -180 98.8047 1.76315 60.6663 3.11103 12.0584 -0.228591 31.3594 0.0744225 -11.4842 179.66 180 -180
 221.616 76.5587 -281.366 130.847 -126.31 116.417 180 179.994 -179.356 11.3124 0.012607 1.07299 10.1792 0.037821 1.07299 4.14328 0.00630421 0.643794 11.7005 0.0435197 0.210139 20.8423 -4.8169 -15.7659 7.18469 19.1447 -5.71092 1.23684 -28.3852 2.68681 24.5735 -38.3242 16.6333 161.902 -164.78 173.338 -0 -15.5142 17.2599 169.622 175.447 -158.56 8.45411 -11.2426 -71.4049 179.829 144.906 -178.397 -0 19.2485 12.6271 9.66057 54.9301 45.6513 179.175 171.47 -179.545 39.9605 -0.0849619 -1.34606 179.984 180 -180 98.0377 1.63653 60.4821 1.91977 12.1127 -0.072317 26.9257 -0.0313815 -11.4474 179.653 180 -180
